<svg width="407" height="114" viewBox="0 0 407 114" fill="none" xmlns="http://www.w3.org/2000/svg">
    <g filter="url(#filter0_d_1_7)">
        <rect x="310" y="19" width="92" height="82" rx="5" stroke="#12B1BF" stroke-width="2" stroke-linejoin="round"
            shape-rendering="crispEdges" />
    </g>
    <path
        d="M324.516 93C323.14 93 322.116 92.68 321.444 92.04C320.804 91.368 320.484 90.344 320.484 88.968V32.04C320.484 30.632 320.804 29.608 321.444 28.968C322.116 28.328 323.14 28.008 324.516 28.008C325.924 28.008 326.948 28.328 327.588 28.968C328.228 29.608 328.548 30.632 328.548 32.04V88.968C328.548 90.344 328.228 91.368 327.588 92.04C326.948 92.68 325.924 93 324.516 93ZM368.003 93C366.659 93 365.651 92.664 364.979 91.992C364.307 91.32 363.971 90.312 363.971 88.968V36.072H345.347C344.003 36.072 342.995 35.736 342.323 35.064C341.651 34.392 341.315 33.384 341.315 32.04C341.315 30.696 341.651 29.688 342.323 29.016C342.995 28.344 344.003 28.008 345.347 28.008H390.659C392.003 28.008 393.011 28.344 393.683 29.016C394.355 29.688 394.691 30.696 394.691 32.04C394.691 33.384 394.355 34.392 393.683 35.064C393.011 35.736 392.003 36.072 390.659 36.072H372.035V88.968C372.035 90.248 371.683 91.24 370.979 91.944C370.307 92.648 369.315 93 368.003 93Z"
        fill="#12B1BF" />
    <path
        d="M22.224 93C21.008 93 20.192 92.344 19.776 91.032L1.392 34.488C1.136 33.752 1.232 33.016 1.68 32.28C2.128 31.512 2.832 31.128 3.792 31.128C4.336 31.128 4.816 31.288 5.232 31.608C5.68 31.896 5.984 32.344 6.144 32.952L23.232 85.464H21.84L38.016 33.096C38.24 32.392 38.624 31.88 39.168 31.56C39.744 31.24 40.336 31.08 40.944 31.08C41.584 31.08 42.192 31.24 42.768 31.56C43.344 31.88 43.712 32.392 43.872 33.096L60.048 85.464H58.656L75.744 32.952C75.968 32.344 76.272 31.896 76.656 31.608C77.072 31.288 77.552 31.128 78.096 31.128C79.184 31.128 79.92 31.496 80.304 32.232C80.72 32.968 80.8 33.72 80.544 34.488L62.112 91.032C61.696 92.344 60.816 93 59.472 93H59.28C57.904 93 57.024 92.344 56.64 91.032L40.176 38.136H41.568L25.104 91.032C24.88 91.832 24.528 92.36 24.048 92.616C23.568 92.872 22.96 93 22.224 93ZM141.839 89.4C138.767 92.024 134.975 93.336 130.463 93.336H104.063C99.0393 93.368 95.3913 92.232 93.1193 89.928C90.8473 87.592 89.7113 83.816 89.7113 78.6V54.312C89.7113 49.064 90.8473 45.288 93.1193 42.984C95.3913 40.648 99.0393 39.512 104.063 39.576H129.023C134.175 39.576 137.871 40.728 140.111 43.032C142.351 45.336 143.471 49.128 143.471 54.408V73.176C143.471 76.088 142.751 78.2 141.311 79.512C139.871 80.824 137.535 81.48 134.303 81.48C132.287 81.48 130.623 81.128 129.311 80.424C128.031 79.72 127.055 78.328 126.383 76.248C125.103 78.36 123.487 79.8 121.535 80.568C119.583 81.304 117.311 81.672 114.719 81.672H114.047C109.887 81.672 106.815 80.696 104.831 78.744C102.879 76.792 101.903 73.752 101.903 69.624V63.384C101.903 59.064 102.863 55.928 104.783 53.976C106.735 52.024 109.791 51.048 113.951 51.048H117.887C119.487 51.048 120.911 51.272 122.159 51.72C123.407 52.136 124.495 53.096 125.423 54.6C125.551 53.16 125.807 52.216 126.191 51.768C126.607 51.288 127.071 51.048 127.583 51.048C128.319 51.048 128.895 51.256 129.311 51.672C129.727 52.088 129.935 52.664 129.935 53.4V73.176C129.935 74.712 130.175 75.704 130.655 76.152C131.167 76.568 132.383 76.776 134.303 76.776C136.255 76.776 137.487 76.552 137.999 76.104C138.511 75.656 138.767 74.68 138.767 73.176V54.408C138.767 51.784 138.479 49.736 137.903 48.264C137.327 46.792 136.335 45.768 134.927 45.192C133.519 44.584 131.551 44.28 129.023 44.28H104.063C100.319 44.216 97.7753 44.888 96.4313 46.296C95.0873 47.672 94.4153 50.344 94.4153 54.312V78.6C94.4153 82.536 95.0873 85.208 96.4313 86.616C97.7753 87.992 100.319 88.664 104.063 88.632H130.463C132.351 88.632 133.903 88.424 135.119 88.008C136.367 87.592 137.599 86.856 138.815 85.8C139.263 85.448 139.775 85.272 140.351 85.272C141.023 85.272 141.583 85.496 142.031 85.944C142.479 86.392 142.703 86.952 142.703 87.624C142.703 88.328 142.415 88.92 141.839 89.4ZM106.607 69.624C106.607 72.44 107.135 74.376 108.191 75.432C109.279 76.456 111.231 76.968 114.047 76.968H114.719C118.335 76.968 120.991 76.36 122.687 75.144C124.383 73.928 125.231 72.088 125.231 69.624V63.48C125.231 60.376 124.735 58.312 123.743 57.288C122.751 56.264 120.799 55.752 117.887 55.752H113.951C111.135 55.752 109.199 56.264 108.143 57.288C107.119 58.312 106.607 60.344 106.607 63.384V69.624ZM178.629 93C172.741 93 168.437 91.64 165.717 88.92C162.997 86.2 161.637 81.912 161.637 76.056V52.68H155.925C154.229 52.68 153.381 51.832 153.381 50.136C153.381 48.472 154.229 47.64 155.925 47.64H161.637V37.32C161.637 35.624 162.469 34.776 164.133 34.776C165.829 34.776 166.677 35.624 166.677 37.32V47.64H178.725C180.389 47.64 181.221 48.472 181.221 50.136C181.221 51.832 180.389 52.68 178.725 52.68H166.677V76.056C166.677 80.536 167.541 83.64 169.269 85.368C171.029 87.096 174.149 87.96 178.629 87.96C179.557 87.96 180.213 88.168 180.597 88.584C181.013 89 181.221 89.624 181.221 90.456C181.221 92.152 180.357 93 178.629 93ZM206.696 93C200.712 93 196.328 91.608 193.544 88.824C190.76 86.04 189.368 81.656 189.368 75.672V64.824C189.368 58.84 190.744 54.472 193.496 51.72C196.28 48.936 200.68 47.576 206.696 47.64H214.568C219.272 47.64 222.856 48.44 225.32 50.04C227.816 51.608 229.304 54.088 229.784 57.48C229.88 58.344 229.688 59 229.208 59.448C228.76 59.896 228.12 60.12 227.288 60.12C226.52 60.12 225.944 59.928 225.56 59.544C225.176 59.128 224.888 58.536 224.696 57.768C224.344 55.912 223.4 54.6 221.864 53.832C220.328 53.064 217.896 52.68 214.568 52.68H206.696C202.12 52.616 198.92 53.48 197.096 55.272C195.304 57.032 194.408 60.216 194.408 64.824V75.672C194.408 80.248 195.304 83.448 197.096 85.272C198.92 87.064 202.12 87.96 206.696 87.96H214.568C217.896 87.96 220.328 87.576 221.864 86.808C223.4 86.04 224.344 84.712 224.696 82.824C224.888 82.056 225.176 81.48 225.56 81.096C225.944 80.68 226.52 80.472 227.288 80.472C228.12 80.472 228.76 80.712 229.208 81.192C229.688 81.64 229.88 82.28 229.784 83.112C229.304 86.504 227.816 89 225.32 90.6C222.856 92.2 219.272 93 214.568 93H206.696ZM248.051 93C246.355 93 245.507 92.152 245.507 90.456V28.92C245.507 27.256 246.355 26.424 248.051 26.424C249.715 26.424 250.547 27.256 250.547 28.92V54.744C253.587 50.008 259.091 47.64 267.059 47.64H269.747C275.731 47.64 280.099 49.032 282.851 51.816C285.635 54.568 287.027 58.936 287.027 64.92V90.456C287.027 92.152 286.195 93 284.531 93C282.835 93 281.987 92.152 281.987 90.456V64.92C281.987 60.344 281.075 57.16 279.251 55.368C277.459 53.576 274.291 52.68 269.747 52.68H267.059C262.099 52.68 258.195 53.464 255.347 55.032C252.499 56.6 250.899 59.048 250.547 62.376V90.456C250.547 92.152 249.715 93 248.051 93Z"
        fill="white" />
    <defs>
        <filter id="filter0_d_1_7" x="305" y="18" width="102" height="92" filterUnits="userSpaceOnUse"
            color-interpolation-filters="sRGB">
            <feFlood flood-opacity="0" result="BackgroundImageFix" />
            <feColorMatrix in="SourceAlpha" type="matrix" values="0 0 0 0 0 0 0 0 0 0 0 0 0 0 0 0 0 0 127 0"
                result="hardAlpha" />
            <feOffset dy="4" />
            <feGaussianBlur stdDeviation="2" />
            <feComposite in2="hardAlpha" operator="out" />
            <feColorMatrix type="matrix" values="0 0 0 0 0 0 0 0 0 0 0 0 0 0 0 0 0 0 0.25 0" />
            <feBlend mode="normal" in2="BackgroundImageFix" result="effect1_dropShadow_1_7" />
            <feBlend mode="normal" in="SourceGraphic" in2="effect1_dropShadow_1_7" result="shape" />
        </filter>
    </defs>
</svg>